<svg xmlns="http://www.w3.org/2000/svg" width="1155" height="162" viewBox="0 0 1155 162">
  <g id="Group_5" data-name="Group 5" transform="translate(-344 -201)">
    <g id="Rectangle_17" data-name="Rectangle 17" transform="translate(1269 276)" fill="#fff" stroke="#707070" stroke-width="3">
      <rect width="91" height="34" stroke="none"/>
      <rect x="1.5" y="1.5" width="88" height="31" fill="none"/>
    </g>
    <g id="Rectangle_18" data-name="Rectangle 18" transform="translate(1269 276)" fill="#fff" stroke="#707070" stroke-width="3">
      <rect width="91" height="34" stroke="none"/>
      <rect x="1.5" y="1.5" width="88" height="31" fill="none"/>
    </g>
    <line id="Line_6" data-name="Line 6" x2="49.387" transform="translate(1281.94 293.412)" fill="none" stroke="#707070" stroke-width="3"/>
    <line id="Line_7" data-name="Line 7" x2="49.387" transform="translate(1281.94 293.412)" fill="none" stroke="#707070" stroke-width="3"/>
    <g id="Ellipse_7" data-name="Ellipse 7" transform="translate(1339 287)" fill="#fff" stroke="#707070" stroke-width="3">
      <ellipse cx="5.5" cy="5" rx="5.5" ry="5" stroke="none"/>
      <ellipse cx="5.5" cy="5" rx="4" ry="3.5" fill="none"/>
    </g>
    <g id="Ellipse_8" data-name="Ellipse 8" transform="translate(1339 287)" fill="#fff" stroke="#707070" stroke-width="3">
      <ellipse cx="5.5" cy="5" rx="5.5" ry="5" stroke="none"/>
      <ellipse cx="5.5" cy="5" rx="4" ry="3.5" fill="none"/>
    </g>
    <text id="Choose_from_a_range_of_themes_provided_by_botmafia._Connect_botmafia_UI_to_your_local_server." data-name="Choose from a range of themes provided by botmafia. 
Connect botmafia UI to your local server." transform="translate(344 342)" fill="#707070" font-size="14" font-family="Calibri"><tspan x="0" y="0">Choose from a range of themes provided by botmafia. </tspan><tspan x="0" y="17">Connect botmafia UI to your local server.</tspan></text>
    <g id="Group_2" data-name="Group 2" transform="translate(444 201)">
      <g id="Rectangle_23" data-name="Rectangle 23" fill="#f9f7f7" stroke="#e4e4e4" stroke-width="1">
        <rect width="111" height="109" rx="2" stroke="none"/>
        <rect x="0.5" y="0.5" width="110" height="108" rx="1.5" fill="none"/>
      </g>
      <rect id="Rectangle_24" data-name="Rectangle 24" width="111" height="28" rx="2" fill="#2bdcb3"/>
      <rect id="Rectangle_25" data-name="Rectangle 25" width="89" height="24" transform="translate(10 76)" fill="#fff"/>
    </g>
    <g id="Group_3" data-name="Group 3" transform="translate(789 200.973)">
      <g id="Rectangle_19" data-name="Rectangle 19" transform="translate(0 0.027)" fill="#f9f7f7" stroke="#e1d7d7" stroke-width="1">
        <rect width="173" height="109" rx="2" stroke="none"/>
        <rect x="0.5" y="0.5" width="172" height="108" rx="1.5" fill="none"/>
      </g>
      <text id="_type_:_text_msg_:_delectus_aut_autem_.._" data-name="{
   &quot;type&quot;:&quot;text&quot;
    &quot; msg&quot;: &quot;delectus aut autem&quot;,
    …..
}" transform="translate(17 23.027)" fill="#a2a2a2" font-size="9" font-family="Calibri-BoldItalic, Calibri" font-weight="700" font-style="italic"><tspan x="0" y="0">{</tspan><tspan x="0" y="11" xml:space="preserve">   &quot;type&quot;:&quot;text&quot;</tspan><tspan x="0" y="22" xml:space="preserve">    &quot; msg&quot;: &quot;delectus aut autem&quot;,</tspan><tspan x="0" y="33" xml:space="preserve">    …..</tspan><tspan x="0" y="44">}</tspan></text>
    </g>
    <g id="Rectangle_21" data-name="Rectangle 21" transform="translate(1269 210)" fill="#fff" stroke="#707070" stroke-width="3">
      <rect width="91" height="33" stroke="none"/>
      <rect x="1.5" y="1.5" width="88" height="30" fill="none"/>
    </g>
    <g id="Rectangle_22" data-name="Rectangle 22" transform="translate(1269 210)" fill="#fff" stroke="#707070" stroke-width="3">
      <rect width="91" height="33" stroke="none"/>
      <rect x="1.5" y="1.5" width="88" height="30" fill="none"/>
    </g>
    <g id="Rectangle_20" data-name="Rectangle 20" transform="translate(1269 243)" fill="#fff" stroke="#707070" stroke-width="3">
      <rect width="91" height="33" stroke="none"/>
      <rect x="1.5" y="1.5" width="88" height="30" fill="none"/>
    </g>
    <line id="Line_9" data-name="Line 9" x2="49.387" transform="translate(1281.94 226.87)" fill="none" stroke="#707070" stroke-width="3"/>
    <line id="Line_10" data-name="Line 10" x2="49.387" transform="translate(1281.94 226.87)" fill="none" stroke="#707070" stroke-width="3"/>
    <line id="Line_8" data-name="Line 8" x2="49.387" transform="translate(1281.94 260.141)" fill="none" stroke="#707070" stroke-width="3"/>
    <g id="Ellipse_10" data-name="Ellipse 10" transform="translate(1339 219)" fill="#fff" stroke="#707070" stroke-width="3">
      <ellipse cx="5.5" cy="6" rx="5.5" ry="6" stroke="none"/>
      <ellipse cx="5.5" cy="6" rx="4" ry="4.5" fill="none"/>
    </g>
    <g id="Ellipse_11" data-name="Ellipse 11" transform="translate(1339 219)" fill="#fff" stroke="#707070" stroke-width="3">
      <ellipse cx="5.5" cy="6" rx="5.5" ry="6" stroke="none"/>
      <ellipse cx="5.5" cy="6" rx="4" ry="4.5" fill="none"/>
    </g>
    <g id="Ellipse_9" data-name="Ellipse 9" transform="translate(1339 253)" fill="#fff" stroke="#707070" stroke-width="3">
      <circle cx="5.5" cy="5.5" r="5.5" stroke="none"/>
      <circle cx="5.5" cy="5.5" r="4" fill="none"/>
    </g>
    <text id="When_the_user_enters_a_message_botmafia_sends_a_POST_request_to_your_server_with_the_message_text." data-name="When the user enters a message, botmafia sends a POST request 
to your server with the message text." transform="translate(697 342)" fill="#707070" font-size="14" font-family="Calibri"><tspan x="0" y="0">When the user enters a message, botmafia sends a POST request </tspan><tspan x="0" y="17">to your server with the message text.</tspan></text>
    <text id="Your_backend_server_should_capture_the_data_and_send_an_appropriate_return_message." data-name="Your backend server should capture the data and send an appropriate 
return message." transform="translate(1100 342)" fill="#707070" font-size="14" font-family="Calibri"><tspan x="0" y="0">Your backend server should capture the data and send an appropriate </tspan><tspan x="0" y="17">return message.</tspan></text>
  </g>
</svg>
